<svg width="133" height="85" viewBox="0 0 133 85" fill="none" xmlns="http://www.w3.org/2000/svg">
<path d="M124 72.5C124 72.9764 123.7 73.5637 122.922 74.2471C122.154 74.9212 120.995 75.623 119.458 76.3287C116.389 77.7381 111.914 79.1188 106.338 80.3325C95.1924 82.7585 79.7286 84.5 62.5 84.5C45.2714 84.5 29.6821 82.7585 18.411 80.3323C12.7722 79.1185 8.23444 77.7375 5.11765 76.3275C3.55698 75.6215 2.37769 74.9192 1.59667 74.2444C0.803939 73.5595 0.5 72.9728 0.5 72.5V69H124V72.5Z" fill="#EBEDDF" stroke="#CDCFC3"/>
<path d="M124 68.5C124 68.98 123.696 69.584 122.915 70.2963C122.145 70.998 120.984 71.7382 119.447 72.4902C116.377 73.9923 111.902 75.4969 106.327 76.8349C95.1842 79.5095 79.7237 81.5 62.5 81.5C45.2763 81.5 29.6903 79.5095 18.4213 76.8346C12.7838 75.4965 8.24594 73.9916 5.12867 72.489C3.5679 71.7366 2.38678 70.9959 1.60361 70.2935C0.807762 69.5798 0.5 68.9765 0.5 68.5C0.5 68.0611 0.766137 67.6073 1.52742 67.1495C2.28954 66.6913 3.45393 66.2922 5.01677 65.9558C8.13401 65.2848 12.6734 64.8958 18.325 64.6786C26.4447 64.3666 36.789 64.4108 48.3788 64.4604C52.9147 64.4798 57.6413 64.5 62.5 64.5C67.3667 64.5 72.0909 64.4797 76.6164 64.4603C88.1537 64.4108 98.4001 64.3668 106.425 64.6786C112.014 64.8958 116.49 65.2848 119.56 65.9554C121.099 66.2917 122.243 66.6904 122.991 67.1476C123.736 67.6033 124 68.0568 124 68.5Z" fill="#EBEDDF" stroke="#CDCFC3"/>
<ellipse cx="63" cy="71" rx="30" ry="5" fill="#D7D9CD"/>
<path d="M106.407 21.5284L107.189 18.3022C111.097 18.7419 114.817 19.7228 118.131 21.1847C121.567 22.7007 124.484 24.6979 126.706 27.0418C128.927 29.3851 130.402 32.0211 131.057 34.78C131.711 37.5372 131.534 40.373 130.533 43.1141C129.531 45.8574 127.722 48.4555 125.203 50.7382C122.683 53.0212 119.513 54.9346 115.888 56.3508C112.264 57.7668 108.269 58.6523 104.157 58.9488C100.287 59.2278 95.818 58.9951 92.0649 58.2399L94.1316 55.0741C97.2266 55.7343 100.492 55.9538 103.739 55.7197C107.104 55.4771 110.379 54.7521 113.36 53.5879C116.34 52.4237 118.966 50.8432 121.067 48.9392C123.168 47.035 124.704 44.8442 125.56 42.4992C126.417 40.1519 126.572 37.7104 126.008 35.3348C125.445 32.9609 124.182 30.7201 122.315 28.7507C120.449 26.7819 118.018 25.1242 115.184 23.874C112.512 22.695 109.53 21.8998 106.407 21.5284Z" fill="#EBEDDF" stroke="#CDCFC3"/>
<path d="M108.95 5.05714C108.95 5.05714 112.342 72 63 72C13.6584 72 17.0495 5.05714 17.0495 5.05714C17.0495 5.05714 31 1 63 1C95 1 108.95 5.05714 108.95 5.05714Z" fill="#EBEDDF"/>
<path d="M17.0495 5.05714C17.0495 5.05714 13.6584 72 63 72C112.342 72 108.95 5.05714 108.95 5.05714M17.0495 5.05714C17.0495 5.05714 34 10.1286 63 10.1286C92 10.1286 108.95 5.05714 108.95 5.05714M17.0495 5.05714C17.0495 5.05714 31 1 63 1C95 1 108.95 5.05714 108.95 5.05714" stroke="#CDCFC3"/>
<path d="M63 71C111.269 71 107.952 6 107.952 6C107.952 6 91.3696 10.9242 63 10.9242C34.6304 10.9242 18.0484 6 18.0484 6C18.0484 6 14.731 71 63 71Z" fill="#432F28" stroke="#CDCFC3"/>
<path d="M27 45C32.3849 55.6153 45.5 65 45.5 65C45.5 65 34.4124 48.2628 32.5 36C30.9629 26.1436 29 10 29 10C29 10 28.5 10 26 9.5C23.5 9 19 8 19 8C19 8 20.8843 32.9442 27 45Z" fill="#F2F2EF" fill-opacity="0.4"/>
</svg>
